<svg width="800" height="800" viewBox="0 0 800 800" fill="none" xmlns="http://www.w3.org/2000/svg">
    <g clip-path="url(#clip0_101_31)">
        <path d="M400 800C620.914 800 800 620.914 800 400C800 179.086 620.914 0 400 0C179.086 0 0 179.086 0 400C0 620.914 179.086 800 400 800Z"
              fill="#cd201f"/>
        <path fill-rule="evenodd" clip-rule="evenodd"
              d="M588.342 272.968C594.993 279.62 599.787 287.898 602.243 296.978C616.392 353.928 613.122 443.873 602.518 503.022C600.062 512.102 595.268 520.38 588.617 527.032C581.965 533.683 573.687 538.477 564.607 540.933C531.365 550 397.573 550 397.573 550C397.573 550 263.782 550 230.54 540.933C221.46 538.477 213.182 533.683 206.53 527.032C199.878 520.38 195.085 512.102 192.628 503.022C178.397 446.318 182.298 356.318 192.353 297.253C194.81 288.172 199.603 279.893 206.255 273.242C212.907 266.59 221.185 261.798 230.265 259.34C263.507 250.275 397.298 250 397.298 250C397.298 250 531.09 250 564.332 259.067C573.412 261.523 581.69 266.317 588.342 272.968ZM465.705 400L354.717 464.285V335.713L465.705 400Z"
              fill="white"/>
    </g>
    <defs>
        <clipPath id="clip0_101_31">
            <rect width="800" height="800" fill="white"/>
        </clipPath>
    </defs>
</svg>
